<svg width="171" height="56" viewBox="0 0 171 56" fill="none" xmlns="http://www.w3.org/2000/svg">
<path fill-rule="evenodd" clip-rule="evenodd" d="M114 36C108.477 36 104 40.4772 104 46C104 51.5228 108.477 56 114 56H161C166.523 56 171 51.5228 171 46C171 40.4772 166.523 36 161 36H114ZM118.198 43.434V51H119.979V43.434H122.891V41.861H115.286V43.434H118.198ZM123.447 50.701C123.907 50.987 124.422 51.13 124.994 51.13C125.445 51.13 125.848 51.039 126.203 50.857C126.439 50.7302 126.643 50.5748 126.814 50.3906V51H128.504V44.721H126.814V45.3246C126.643 45.1385 126.439 44.985 126.203 44.864C125.848 44.682 125.445 44.591 124.994 44.591C124.422 44.591 123.907 44.734 123.447 45.02C122.988 45.306 122.628 45.696 122.368 46.19C122.108 46.684 121.978 47.243 121.978 47.867C121.978 48.4823 122.108 49.037 122.368 49.531C122.628 50.025 122.988 50.415 123.447 50.701ZM126.463 49.089C126.169 49.401 125.783 49.557 125.306 49.557C124.994 49.557 124.717 49.4877 124.474 49.349C124.24 49.2017 124.054 49.0023 123.915 48.751C123.785 48.491 123.72 48.192 123.72 47.854C123.72 47.5247 123.785 47.2343 123.915 46.983C124.054 46.723 124.24 46.5237 124.474 46.385C124.717 46.2377 124.994 46.164 125.306 46.164C125.627 46.164 125.904 46.2377 126.138 46.385C126.381 46.5237 126.567 46.723 126.697 46.983C126.836 47.2343 126.905 47.5247 126.905 47.854C126.905 48.3567 126.758 48.7683 126.463 49.089ZM131.09 50.701C131.549 50.987 132.065 51.13 132.637 51.13C133.088 51.13 133.491 51.039 133.846 50.857C134.082 50.7302 134.286 50.5748 134.457 50.3906V51H136.147V44.721H134.457V45.3246C134.286 45.1385 134.082 44.985 133.846 44.864C133.491 44.682 133.088 44.591 132.637 44.591C132.065 44.591 131.549 44.734 131.09 45.02C130.631 45.306 130.271 45.696 130.011 46.19C129.751 46.684 129.621 47.243 129.621 47.867C129.621 48.4823 129.751 49.037 130.011 49.531C130.271 50.025 130.631 50.415 131.09 50.701ZM134.106 49.089C133.811 49.401 133.426 49.557 132.949 49.557C132.637 49.557 132.36 49.4877 132.117 49.349C131.883 49.2017 131.697 49.0023 131.558 48.751C131.428 48.491 131.363 48.192 131.363 47.854C131.363 47.5247 131.428 47.2343 131.558 46.983C131.697 46.723 131.883 46.5237 132.117 46.385C132.36 46.2377 132.637 46.164 132.949 46.164C133.27 46.164 133.547 46.2377 133.781 46.385C134.024 46.5237 134.21 46.723 134.34 46.983C134.479 47.2343 134.548 47.5247 134.548 47.854C134.548 48.3567 134.401 48.7683 134.106 49.089ZM138.758 51C139.105 51.0953 139.456 51.143 139.811 51.143C140.574 51.143 141.176 50.9653 141.618 50.61C142.06 50.246 142.281 49.7563 142.281 49.141C142.281 48.7597 142.203 48.4477 142.047 48.205C141.9 47.9623 141.705 47.7673 141.462 47.62C141.228 47.4727 140.977 47.36 140.708 47.282C140.448 47.1953 140.197 47.1217 139.954 47.061C139.712 46.9917 139.512 46.9137 139.356 46.827C139.209 46.7403 139.135 46.619 139.135 46.463C139.135 46.3243 139.2 46.216 139.33 46.138C139.469 46.06 139.664 46.021 139.915 46.021C140.193 46.021 140.448 46.073 140.682 46.177C140.925 46.281 141.142 46.45 141.332 46.684L142.359 45.657C142.082 45.293 141.731 45.02 141.306 44.838C140.89 44.656 140.422 44.565 139.902 44.565C139.408 44.565 138.979 44.6473 138.615 44.812C138.251 44.9767 137.97 45.2063 137.77 45.501C137.58 45.7957 137.484 46.1423 137.484 46.541C137.484 46.9223 137.558 47.2343 137.705 47.477C137.861 47.711 138.061 47.8973 138.303 48.036C138.546 48.166 138.797 48.2743 139.057 48.361C139.326 48.439 139.582 48.5127 139.824 48.582C140.067 48.6427 140.262 48.7207 140.409 48.816C140.565 48.9113 140.643 49.0457 140.643 49.219C140.643 49.375 140.57 49.492 140.422 49.57C140.284 49.648 140.076 49.687 139.798 49.687C139.452 49.687 139.135 49.6263 138.849 49.505C138.563 49.3837 138.312 49.2017 138.095 48.959L137.081 49.986C137.289 50.2287 137.536 50.4367 137.822 50.61C138.108 50.7747 138.42 50.9047 138.758 51ZM145.133 47.9361L147.434 51H149.514L146.919 47.7065L149.384 44.721H147.421L145.133 47.5995V41.601H143.43V51H145.133V47.9361ZM150.298 41.601V51H152.001V41.601H150.298ZM156.695 51.039L155.551 53.626H153.744L155.24 50.46L152.86 44.721H154.706L156.142 48.7067L157.631 44.721H159.49L156.695 51.039Z" fill="black"/>
<path d="M59.024 30.352C57.296 30.352 55.696 30.064 54.224 29.488C52.752 28.8907 51.4613 28.0693 50.352 27.024C49.264 25.9573 48.4107 24.7093 47.792 23.28C47.1947 21.8507 46.896 20.304 46.896 18.64C46.896 16.9547 47.1947 15.408 47.792 14C48.4107 12.5707 49.264 11.3333 50.352 10.288C51.4613 9.24267 52.7413 8.42133 54.192 7.824C55.664 7.22667 57.2533 6.928 58.96 6.928C60.752 6.928 62.3627 7.216 63.792 7.792C65.2213 8.34667 66.48 9.12533 67.568 10.128L63.728 13.968C63.1947 13.3707 62.5333 12.9013 61.744 12.56C60.9547 12.2187 60.0267 12.048 58.96 12.048C58.0427 12.048 57.2 12.1973 56.432 12.496C55.6853 12.7947 55.0347 13.2427 54.48 13.84C53.9253 14.416 53.488 15.1093 53.168 15.92C52.8693 16.7307 52.72 17.6373 52.72 18.64C52.72 19.6427 52.8693 20.5493 53.168 21.36C53.488 22.1707 53.9253 22.8747 54.48 23.472C55.0347 24.048 55.6853 24.496 56.432 24.816C57.2 25.1147 58.0427 25.264 58.96 25.264C60.0267 25.264 60.9653 25.104 61.776 24.784C62.5867 24.4427 63.28 23.9627 63.856 23.344L67.696 27.184C66.5867 28.1867 65.328 28.9653 63.92 29.52C62.5333 30.0747 60.9013 30.352 59.024 30.352ZM77.1878 30.352C75.5024 30.352 73.9984 30 72.6758 29.296C71.3744 28.5707 70.3398 27.5893 69.5718 26.352C68.8038 25.0933 68.4198 23.6853 68.4198 22.128C68.4198 20.5707 68.7931 19.184 69.5398 17.968C70.3078 16.7307 71.3531 15.76 72.6758 15.056C73.9984 14.3307 75.4918 13.968 77.1558 13.968C78.8198 13.968 80.3024 14.3307 81.6038 15.056C82.9264 15.76 83.9718 16.7307 84.7397 17.968C85.5078 19.184 85.8918 20.5707 85.8918 22.128C85.8918 23.6853 85.5078 25.0933 84.7397 26.352C83.9931 27.5893 82.9584 28.5707 81.6358 29.296C80.3344 30 78.8518 30.352 77.1878 30.352ZM77.1558 25.392C77.7744 25.392 78.3078 25.264 78.7558 25.008C79.2251 24.7307 79.5878 24.3467 79.8438 23.856C80.0998 23.3653 80.2278 22.8 80.2278 22.16C80.2278 21.52 80.0891 20.9653 79.8118 20.496C79.5558 20.0053 79.2038 19.632 78.7558 19.376C78.3078 19.0987 77.7744 18.96 77.1558 18.96C76.5584 18.96 76.0251 19.0987 75.5558 19.376C75.0864 19.6533 74.7238 20.0373 74.4678 20.528C74.2118 20.9973 74.0838 21.552 74.0838 22.192C74.0838 22.8107 74.2118 23.3653 74.4678 23.856C74.7238 24.3467 75.0864 24.7307 75.5558 25.008C76.0251 25.264 76.5584 25.392 77.1558 25.392ZM98.2448 30V21.168C98.2448 20.4427 98.0314 19.8773 97.6048 19.472C97.1781 19.0453 96.6341 18.832 95.9728 18.832C95.5248 18.832 95.1194 18.928 94.7568 19.12C94.4154 19.312 94.1488 19.5787 93.9568 19.92C93.7648 20.2613 93.6688 20.6773 93.6688 21.168L91.4928 20.144C91.4928 18.8853 91.7701 17.808 92.3248 16.912C92.8794 15.9947 93.6368 15.2907 94.5968 14.8C95.5781 14.288 96.6874 14.032 97.9248 14.032C99.0554 14.032 100.058 14.2987 100.933 14.832C101.829 15.344 102.533 16.0373 103.045 16.912C103.557 17.7867 103.813 18.7787 103.813 19.888V30H98.2448ZM88.1008 30V14.352H93.6688V30H88.1008ZM116.901 30V21.168C116.901 20.4427 116.688 19.8773 116.261 19.472C115.834 19.0453 115.29 18.832 114.629 18.832C114.181 18.832 113.776 18.928 113.413 19.12C113.072 19.312 112.805 19.5787 112.613 19.92C112.421 20.2613 112.325 20.6773 112.325 21.168L110.149 20.144C110.149 18.8853 110.426 17.808 110.981 16.912C111.536 15.9947 112.293 15.2907 113.253 14.8C114.234 14.288 115.344 14.032 116.581 14.032C117.712 14.032 118.714 14.2987 119.589 14.832C120.485 15.344 121.189 16.0373 121.701 16.912C122.213 17.7867 122.469 18.7787 122.469 19.888V30H116.901ZM106.757 30V14.352H112.325V30H106.757ZM133.317 30.352C131.568 30.352 130.021 30.0107 128.677 29.328C127.333 28.624 126.277 27.6533 125.509 26.416C124.741 25.1787 124.357 23.76 124.357 22.16C124.357 20.5813 124.731 19.184 125.477 17.968C126.224 16.7307 127.237 15.76 128.517 15.056C129.819 14.3307 131.28 13.968 132.901 13.968C134.48 13.968 135.877 14.3093 137.093 14.992C138.331 15.6533 139.291 16.5813 139.973 17.776C140.677 18.9493 141.029 20.2933 141.029 21.808C141.029 22.128 141.008 22.4587 140.965 22.8C140.944 23.12 140.88 23.4933 140.773 23.92L126.981 23.984V20.4L138.565 20.304L136.069 21.872C136.048 20.9973 135.92 20.2827 135.685 19.728C135.451 19.152 135.109 18.7147 134.661 18.416C134.213 18.1173 133.648 17.968 132.965 17.968C132.261 17.968 131.653 18.1387 131.141 18.48C130.629 18.8213 130.235 19.3013 129.957 19.92C129.68 20.5387 129.541 21.2853 129.541 22.16C129.541 23.056 129.691 23.824 129.989 24.464C130.288 25.0827 130.715 25.552 131.269 25.872C131.824 26.192 132.507 26.352 133.317 26.352C134.085 26.352 134.757 26.224 135.333 25.968C135.931 25.712 136.464 25.3173 136.933 24.784L139.845 27.696C139.077 28.5707 138.139 29.232 137.029 29.68C135.941 30.128 134.704 30.352 133.317 30.352ZM150.876 30.352C149.212 30.352 147.708 30 146.364 29.296C145.041 28.592 143.996 27.6213 143.228 26.384C142.46 25.1467 142.076 23.7493 142.076 22.192C142.076 20.6133 142.46 19.2053 143.228 17.968C144.017 16.7307 145.073 15.76 146.396 15.056C147.74 14.3307 149.255 13.968 150.94 13.968C152.156 13.968 153.265 14.1707 154.268 14.576C155.271 14.9813 156.188 15.5893 157.02 16.4L153.5 19.92C153.18 19.6 152.807 19.3653 152.38 19.216C151.975 19.0453 151.495 18.96 150.94 18.96C150.343 18.96 149.799 19.0987 149.308 19.376C148.839 19.632 148.455 19.9947 148.156 20.464C147.879 20.9333 147.74 21.4987 147.74 22.16C147.74 22.8 147.879 23.3653 148.156 23.856C148.455 24.3253 148.839 24.6987 149.308 24.976C149.799 25.2533 150.343 25.392 150.94 25.392C151.537 25.392 152.049 25.296 152.476 25.104C152.903 24.912 153.276 24.6347 153.596 24.272L157.148 27.792C156.273 28.6453 155.324 29.2853 154.3 29.712C153.297 30.1387 152.156 30.352 150.876 30.352ZM161.057 30V7.888H166.625V30H161.057ZM157.601 18.992V14.352H170.081V18.992H157.601Z" fill="black"/>
<path fill-rule="evenodd" clip-rule="evenodd" d="M18 0C8.05888 0 0 8.05888 0 18C0 27.9411 8.05888 36 18 36C27.9411 36 36 27.9411 36 18C36 8.05888 27.9411 0 18 0ZM23.4453 24.2221C23.4453 23.7926 23.7935 23.4443 24.2231 23.4443C24.6526 23.4443 25.0009 23.7926 25.0009 24.2221C25.0009 24.6517 24.6526 24.9999 24.2231 24.9999C23.7935 24.9999 23.4453 24.6517 23.4453 24.2221ZM21.5564 23.4418C21.8936 22.2875 22.9599 21.4443 24.2231 21.4443C25.7572 21.4443 27.0009 22.688 27.0009 24.2221C27.0009 25.7562 25.7572 26.9999 24.2231 26.9999C22.9599 26.9999 21.8936 26.1567 21.5564 25.0025V25.1113H14.4453V24.9996C14.1091 26.1553 13.0421 26.9999 11.7778 26.9999C10.2437 26.9999 9 25.7563 9 24.2222C9 22.9589 9.84328 21.8926 10.9976 21.5554H10.8906V14.4443H10.997C9.843 14.107 9 13.0408 9 11.7778C9 10.2437 10.2437 9 11.7778 9C13.0421 9 14.1091 9.84463 14.4453 11.0004V10.6665H21.5564V10.9974C21.8936 9.84318 22.9599 9 24.2231 9C25.7572 9 27.0009 10.2437 27.0009 11.7778C27.0009 13.3119 25.7572 14.5556 24.2231 14.5556C22.9599 14.5556 21.8936 13.7124 21.5564 12.5581V12.6665H14.4453V12.5552C14.1812 13.4631 13.466 14.1791 12.5585 14.4443H12.8906V21.5554H12.5579C13.4657 21.8206 14.1811 22.5366 14.4453 23.4448V23.1113H21.5564V23.4418ZM24.2231 11C23.7935 11 23.4453 11.3482 23.4453 11.7778C23.4453 12.2073 23.7935 12.5556 24.2231 12.5556C24.6526 12.5556 25.0009 12.2073 25.0009 11.7778C25.0009 11.3482 24.6526 11 24.2231 11ZM11 24.2222C11 23.7926 11.3482 23.4444 11.7778 23.4444C12.2073 23.4444 12.5556 23.7926 12.5556 24.2222C12.5556 24.6517 12.2073 24.9999 11.7778 24.9999C11.3482 24.9999 11 24.6517 11 24.2222ZM11.7778 11C11.3482 11 11 11.3482 11 11.7778C11 12.2073 11.3482 12.5556 11.7778 12.5556C12.2073 12.5556 12.5556 12.2073 12.5556 11.7778C12.5556 11.3482 12.2073 11 11.7778 11Z" fill="black"/>
</svg>
