<svg width="169" height="36" viewBox="0 0 169 36" fill="none" xmlns="http://www.w3.org/2000/svg">
<path d="M52.56 20.816V16.72H56.88C57.8187 16.72 58.5333 16.496 59.024 16.048C59.536 15.5787 59.792 14.9493 59.792 14.16C59.792 13.392 59.536 12.7733 59.024 12.304C58.5333 11.8133 57.8187 11.568 56.88 11.568H52.56V7.312H57.68C59.216 7.312 60.56 7.6 61.712 8.176C62.8853 8.752 63.8027 9.54133 64.464 10.544C65.1253 11.5467 65.456 12.72 65.456 14.064C65.456 15.408 65.1147 16.592 64.432 17.616C63.7707 18.6187 62.8427 19.408 61.648 19.984C60.4533 20.5387 59.056 20.816 57.456 20.816H52.56ZM48.016 30V7.312H53.744V30H48.016ZM60.304 30L53.712 20.272L58.864 19.024L66.928 30H60.304ZM75.9423 30.352C74.1929 30.352 72.6463 30.0107 71.3023 29.328C69.9583 28.624 68.9023 27.6533 68.1343 26.416C67.3663 25.1787 66.9823 23.76 66.9823 22.16C66.9823 20.5813 67.3556 19.184 68.1023 17.968C68.8489 16.7307 69.8623 15.76 71.1423 15.056C72.4436 14.3307 73.9049 13.968 75.5263 13.968C77.1049 13.968 78.5023 14.3093 79.7183 14.992C80.9556 15.6533 81.9156 16.5813 82.5983 17.776C83.3023 18.9493 83.6543 20.2933 83.6543 21.808C83.6543 22.128 83.6329 22.4587 83.5903 22.8C83.5689 23.12 83.5049 23.4933 83.3983 23.92L69.6063 23.984V20.4L81.1903 20.304L78.6943 21.872C78.6729 20.9973 78.5449 20.2827 78.3103 19.728C78.0756 19.152 77.7343 18.7147 77.2863 18.416C76.8383 18.1173 76.2729 17.968 75.5903 17.968C74.8863 17.968 74.2783 18.1387 73.7663 18.48C73.2543 18.8213 72.8596 19.3013 72.5823 19.92C72.3049 20.5387 72.1663 21.2853 72.1663 22.16C72.1663 23.056 72.3156 23.824 72.6143 24.464C72.9129 25.0827 73.3396 25.552 73.8943 25.872C74.4489 26.192 75.1316 26.352 75.9423 26.352C76.7103 26.352 77.3823 26.224 77.9583 25.968C78.5556 25.712 79.0889 25.3173 79.5583 24.784L82.4703 27.696C81.7023 28.5707 80.7636 29.232 79.6543 29.68C78.5663 30.128 77.3289 30.352 75.9423 30.352ZM90.211 30L83.843 14.352H89.795L93.859 27.536H91.587L95.619 14.352H101.507L95.139 30H90.211ZM103.069 30V14.352H108.669V30H103.069ZM105.853 12.528C105.021 12.528 104.327 12.2507 103.773 11.696C103.218 11.12 102.941 10.4053 102.941 9.552C102.941 8.72 103.218 8.016 103.773 7.44C104.327 6.864 105.021 6.576 105.853 6.576C106.727 6.576 107.431 6.864 107.965 7.44C108.519 8.016 108.797 8.72 108.797 9.552C108.797 10.4053 108.519 11.12 107.965 11.696C107.431 12.2507 106.727 12.528 105.853 12.528ZM119.817 30.352C118.068 30.352 116.521 30.0107 115.177 29.328C113.833 28.624 112.777 27.6533 112.009 26.416C111.241 25.1787 110.857 23.76 110.857 22.16C110.857 20.5813 111.231 19.184 111.977 17.968C112.724 16.7307 113.737 15.76 115.017 15.056C116.319 14.3307 117.78 13.968 119.401 13.968C120.98 13.968 122.377 14.3093 123.593 14.992C124.831 15.6533 125.791 16.5813 126.473 17.776C127.177 18.9493 127.529 20.2933 127.529 21.808C127.529 22.128 127.508 22.4587 127.465 22.8C127.444 23.12 127.38 23.4933 127.273 23.92L113.481 23.984V20.4L125.065 20.304L122.569 21.872C122.548 20.9973 122.42 20.2827 122.185 19.728C121.951 19.152 121.609 18.7147 121.161 18.416C120.713 18.1173 120.148 17.968 119.465 17.968C118.761 17.968 118.153 18.1387 117.641 18.48C117.129 18.8213 116.735 19.3013 116.457 19.92C116.18 20.5387 116.041 21.2853 116.041 22.16C116.041 23.056 116.191 23.824 116.489 24.464C116.788 25.0827 117.215 25.552 117.769 25.872C118.324 26.192 119.007 26.352 119.817 26.352C120.585 26.352 121.257 26.224 121.833 25.968C122.431 25.712 122.964 25.3173 123.433 24.784L126.345 27.696C125.577 28.5707 124.639 29.232 123.529 29.68C122.441 30.128 121.204 30.352 119.817 30.352ZM132.869 30L127.909 14.352H133.285L136.229 25.744L134.629 25.776L138.117 14.352H143.077L146.565 25.776L144.965 25.744L147.941 14.352H153.317L148.357 30H143.333L140.005 19.184H141.253L137.829 30H132.869ZM160.615 30.448C159.655 30.448 158.706 30.32 157.767 30.064C156.85 29.808 155.986 29.4667 155.175 29.04C154.386 28.592 153.714 28.08 153.159 27.504L156.199 24.4C156.711 24.9333 157.319 25.3493 158.023 25.648C158.749 25.9467 159.517 26.096 160.327 26.096C160.797 26.096 161.149 26.032 161.383 25.904C161.639 25.776 161.767 25.5947 161.767 25.36C161.767 25.0187 161.586 24.7627 161.223 24.592C160.882 24.4 160.423 24.24 159.847 24.112C159.293 23.9627 158.706 23.792 158.087 23.6C157.469 23.3867 156.871 23.1093 156.295 22.768C155.719 22.4267 155.25 21.9467 154.887 21.328C154.546 20.7093 154.375 19.92 154.375 18.96C154.375 17.9573 154.642 17.0827 155.175 16.336C155.73 15.568 156.498 14.9707 157.479 14.544C158.461 14.096 159.613 13.872 160.935 13.872C162.279 13.872 163.559 14.1067 164.775 14.576C165.991 15.024 166.973 15.7067 167.719 16.624L164.647 19.728C164.135 19.152 163.57 18.7573 162.951 18.544C162.333 18.3093 161.767 18.192 161.255 18.192C160.765 18.192 160.413 18.2667 160.199 18.416C159.986 18.544 159.879 18.7253 159.879 18.96C159.879 19.2373 160.05 19.4613 160.391 19.632C160.754 19.8027 161.213 19.9627 161.767 20.112C162.343 20.24 162.93 20.4107 163.527 20.624C164.146 20.8373 164.733 21.136 165.287 21.52C165.863 21.8827 166.322 22.3733 166.663 22.992C167.026 23.6107 167.207 24.4107 167.207 25.392C167.207 26.9493 166.61 28.1867 165.415 29.104C164.221 30 162.621 30.448 160.615 30.448Z" fill="black"/>
<path fill-rule="evenodd" clip-rule="evenodd" d="M18 0C8.05888 0 0 8.05888 0 18C0 27.9411 8.05888 36 18 36C27.9411 36 36 27.9411 36 18C36 8.05888 27.9411 0 18 0ZM21.3501 27.68C22.2001 28.18 22.8801 28.35 23.4101 28.35C23.9801 28.35 24.3801 28.15 24.6301 27.97C25.0901 27.63 25.8001 26.76 25.3401 24.76L24.6301 21.69C24.5601 21.36 24.7101 20.82 24.9501 20.58L27.4301 18.09C28.6601 16.85 28.5601 15.79 28.4001 15.27C28.2401 14.75 27.7001 13.83 25.9701 13.54L22.7801 13.01C22.4801 12.96 22.0501 12.64 21.9101 12.37L20.1501 8.85C19.3501 7.24 18.3001 7 17.7501 7C17.2001 7 16.1501 7.24 15.3501 8.85L13.5801 12.38C13.4501 12.65 13.0201 12.97 12.7201 13.02L9.53012 13.55C7.81012 13.84 7.27012 14.76 7.10012 15.28C6.93012 15.8 6.83012 16.86 8.07012 18.1L10.5501 20.58C10.7901 20.82 10.9501 21.37 10.8701 21.69L10.1601 24.76C9.69012 26.76 10.4101 27.63 10.8701 27.97C11.3401 28.31 12.3801 28.73 14.1501 27.68L17.1501 25.91C17.4501 25.73 18.0501 25.73 18.3601 25.91L21.3501 27.68ZM19.1201 24.62C18.7301 24.39 18.2401 24.27 17.7501 24.27C17.2601 24.27 16.7701 24.39 16.3901 24.62L13.4001 26.39C12.5201 26.9 11.9801 26.91 11.7701 26.76C11.5601 26.61 11.4001 26.09 11.6301 25.1L12.3401 22.03C12.5301 21.2 12.2201 20.12 11.6201 19.52L9.14012 17.04C8.65012 16.56 8.42012 16.07 8.53012 15.74C8.64012 15.41 9.10012 15.14 9.78012 15.03L12.9601 14.5C13.7301 14.37 14.5701 13.75 14.9201 13.05L16.6901 9.53C17.0001 8.89 17.4001 8.51 17.7501 8.51C18.1001 8.51 18.5001 8.89 18.8201 9.53L20.5801 13.05C20.9301 13.75 21.7701 14.37 22.5401 14.5L25.7301 15.03C26.4101 15.14 26.8701 15.41 26.9801 15.74C27.0801 16.07 26.8601 16.55 26.3701 17.04L23.8901 19.52C23.2901 20.13 22.9801 21.2 23.1701 22.03L23.8801 25.1C24.1001 26.08 23.9501 26.61 23.7401 26.76C23.5301 26.91 22.9801 26.91 22.1101 26.39L19.1201 24.62Z" fill="black"/>
</svg>
